<?xml version="1.0" standalone="no"?>
<!DOCTYPE svg PUBLIC "-//W3C//DTD SVG 20010904//EN"
 "http://www.w3.org/TR/2001/REC-SVG-20010904/DTD/svg10.dtd">
<svg version="1.0" xmlns="http://www.w3.org/2000/svg"
 width="489.000000pt" height="489.000000pt" viewBox="0 0 489.000000 489.000000"
 preserveAspectRatio="xMidYMid meet">
<metadata>
Created by potrace 1.11, written by Peter Selinger 2001-2013
</metadata>
<g transform="translate(0.000000,489.000000) scale(0.100000,-0.100000)"
fill="#000000" stroke="none">
<path d="M1999 4795 c-266 -36 -554 -135 -763 -260 -610 -367 -995 -974 -1067
-1685 -7 -71 -9 -183 -5 -294 l6 -179 -65 -68 -65 -67 0 -469 c0 -257 3 -478
6 -489 4 -17 88 -62 362 -196 452 -221 462 -226 506 -210 42 15 36 18 281
-112 416 -220 578 -270 964 -296 247 -17 416 1 714 76 102 25 110 26 160 12
l52 -15 84 74 c47 41 139 111 205 155 67 45 165 115 219 155 54 40 103 73 108
73 15 0 153 -116 669 -559 397 -341 459 -391 488 -391 l32 0 0 318 0 318 -32
24 c-62 46 -723 618 -768 665 l-45 47 141 136 c78 76 213 202 302 282 l160
145 7 350 c3 192 5 413 3 490 l-3 140 -139 71 c-76 40 -145 78 -152 86 -8 8
-39 87 -69 175 -30 89 -77 212 -105 275 -81 177 -100 235 -100 309 l0 65 -72
35 c-59 28 -99 60 -226 181 -220 212 -345 306 -552 417 -186 99 -445 182 -675
216 -123 18 -431 18 -566 0z m566 -210 c103 -18 223 -55 312 -97 69 -32 66
-26 78 -158 8 -81 14 -92 64 -114 l40 -18 80 71 c45 39 86 71 92 71 36 0 262
-173 379 -290 255 -255 459 -627 525 -957 16 -81 16 -84 -4 -116 -11 -18 -30
-42 -42 -53 -29 -26 -50 -70 -43 -88 9 -23 19 -20 57 14 62 54 68 43 75 -141
11 -316 -55 -638 -189 -919 -81 -168 -117 -203 -154 -147 -13 21 -14 44 -5
172 14 193 16 197 68 110 46 -77 82 -93 82 -37 0 17 -4 22 -14 19 -24 -9 -36
16 -46 94 -14 110 -13 121 21 172 30 45 30 48 15 72 -18 28 -27 30 -44 13 -15
-15 -23 -8 -82 80 -69 103 -130 134 -181 93 -21 -17 -24 -29 -27 -108 -3 -70
0 -100 17 -147 11 -33 19 -62 16 -64 -3 -3 -17 0 -32 7 -37 17 -183 122 -183
132 0 13 115 151 179 213 59 58 61 59 80 42 32 -29 63 -13 148 79 95 104 107
125 89 151 -13 17 -15 17 -50 -9 -20 -15 -40 -37 -46 -47 -14 -25 -107 -100
-125 -100 -20 0 -32 72 -55 335 -27 292 -33 324 -66 353 -15 13 -28 21 -31 18
-2 -2 5 -82 16 -178 27 -224 41 -379 41 -449 l0 -55 -125 -146 c-68 -81 -128
-149 -134 -152 -15 -10 -20 75 -25 429 -2 197 -9 344 -15 366 -7 24 -25 46
-55 67 -46 33 -194 153 -269 218 l-45 39 89 91 c49 50 89 100 89 110 0 27 -38
86 -53 81 -7 -2 -14 -17 -15 -32 -3 -21 -28 -53 -87 -112 -45 -46 -89 -83 -97
-83 -8 0 -57 25 -109 56 -170 102 -341 186 -366 179 -13 -3 -85 -35 -161 -70
-76 -36 -150 -65 -164 -65 -14 0 -79 14 -144 30 -93 24 -426 90 -452 90 -5 0
2 128 14 253 6 56 4 67 -8 67 -8 0 -23 -9 -33 -20 -12 -13 -33 -20 -69 -22
-28 -2 -51 -7 -51 -12 0 -5 19 -16 42 -23 23 -8 44 -22 47 -31 3 -9 1 -66 -3
-127 -5 -60 -8 -111 -6 -113 1 -1 60 -12 131 -22 226 -35 413 -80 434 -104 13
-17 3 -25 -165 -126 -134 -81 -298 -195 -332 -232 -18 -18 -28 -55 -47 -168
-32 -185 -51 -327 -71 -515 -9 -82 -18 -158 -21 -167 -9 -31 -38 -20 -132 48
-51 36 -99 64 -109 62 -19 -3 -76 -81 -186 -252 -37 -58 -74 -106 -81 -106
-21 0 -298 271 -311 305 -23 58 6 343 71 700 60 329 48 298 166 413 125 121
296 269 441 381 59 45 107 84 107 87 0 42 -315 -207 -551 -433 -79 -77 -122
-126 -133 -154 -9 -22 -35 -140 -57 -262 -23 -121 -45 -231 -50 -244 -7 -19
-15 -23 -49 -21 -25 1 -47 -5 -58 -15 -28 -26 -32 -21 -32 39 0 196 148 609
302 846 104 160 281 351 443 480 152 121 388 253 438 246 21 -3 20 -5 -15 -38
-20 -19 -42 -48 -48 -63 -15 -41 -26 -227 -13 -227 23 0 37 37 49 127 11 86
15 98 45 129 35 37 152 120 206 148 44 22 180 54 283 65 112 13 383 5 495 -14z
m540 -168 c22 -12 41 -31 43 -41 4 -21 -57 -90 -100 -112 -26 -13 -28 -13 -32
8 -10 48 -17 149 -11 158 10 17 58 11 100 -13z m-560 -792 c37 -20 110 -63
164 -97 165 -103 540 -392 566 -435 15 -26 12 -725 -3 -888 -16 -166 -23 -188
-74 -262 -147 -210 -558 -662 -635 -698 -44 -21 -97 -18 -346 24 -431 73 -684
154 -729 233 -10 18 -13 130 -13 543 0 546 6 647 55 975 l19 125 43 39 c98 88
314 218 616 373 139 71 213 103 236 103 20 0 62 -15 101 -35z m1973 -645 c60
-27 71 -36 76 -62 8 -40 6 -599 -3 -758 -8 -152 -6 -149 -181 -299 -151 -129
-159 -135 -165 -129 -3 3 17 68 44 145 28 77 61 194 74 259 41 196 66 504 48
596 -5 29 -13 107 -16 172 l-7 119 30 -6 c16 -3 61 -20 100 -37z m-4018 -238
c0 -15 -5 -109 -12 -209 l-12 -182 151 -154 c82 -84 155 -162 161 -174 12 -22
-1 -55 -92 -216 -29 -51 -38 -79 -38 -110 2 -103 -27 -75 -113 106 -106 224
-165 464 -172 710 -6 182 5 240 49 272 31 21 78 -5 78 -43z m3273 -366 c37
-40 69 -142 74 -241 5 -82 3 -92 -15 -108 -66 -60 -144 71 -146 244 -1 114 37
160 87 105z m-2622 -99 c87 -54 179 -133 188 -162 5 -16 12 -77 16 -135 8
-148 24 -321 37 -414 8 -61 16 -85 34 -101 37 -34 138 -79 294 -131 80 -26
179 -60 220 -75 41 -15 104 -33 140 -39 94 -18 95 -19 80 -137 -6 -54 -15
-150 -18 -213 l-7 -114 -34 -23 c-49 -33 -98 -30 -306 21 -254 62 -321 89
-409 163 -22 18 -44 33 -50 33 -28 0 -136 62 -184 105 -66 60 -92 109 -92 175
0 27 -4 50 -8 50 -18 0 -32 -26 -32 -62 0 -21 -4 -38 -9 -38 -29 0 -212 200
-254 278 -14 26 -36 88 -50 138 l-25 92 171 258 c193 290 238 353 252 354 6 0
26 -10 46 -23z m-971 -17 c6 -10 19 -64 30 -119 24 -119 83 -295 151 -448 27
-61 49 -116 49 -122 0 -6 -18 -38 -40 -72 -69 -108 -46 -148 33 -57 53 62 58
60 114 -41 20 -36 45 -76 56 -88 12 -13 17 -29 13 -41 -5 -16 2 -25 37 -45 66
-39 259 -243 255 -270 -2 -16 -9 -21 -23 -19 -47 9 -743 344 -758 366 -4 6 -6
217 -5 469 l3 459 28 24 c34 29 43 30 57 4z m3363 -191 c229 -137 217 -126
217 -213 0 -146 -42 -477 -64 -511 -88 -134 -380 -359 -613 -471 -214 -104
-504 -183 -617 -169 -91 12 -200 45 -219 68 -16 18 -18 32 -12 107 9 120 24
230 36 268 12 38 21 39 170 20 l95 -11 50 33 c100 69 351 338 568 609 116 145
150 203 159 269 7 53 31 92 58 92 11 0 88 -41 172 -91z m301 -532 c8 -13 7
-24 -6 -44 -23 -38 -42 -35 -46 5 -5 54 27 78 52 39z m-1568 -841 c26 -19 14
-28 -41 -28 -47 -1 -72 12 -61 31 10 16 79 14 102 -3z"/>
<path d="M1716 4061 c-15 -24 144 -271 197 -306 13 -8 37 -17 54 -21 26 -5 34
-1 63 33 50 60 151 225 148 243 -5 25 -46 23 -79 -4 -21 -18 -42 -26 -67 -26
-47 0 -215 45 -265 70 -43 23 -44 23 -51 11z m242 -91 c78 -17 87 -31 58 -88
-13 -26 -35 -57 -48 -69 l-24 -23 -31 33 c-42 43 -93 126 -93 150 0 17 5 19
43 14 23 -3 66 -11 95 -17z"/>
<path d="M752 3019 c5 -14 291 -149 316 -149 8 0 12 9 10 23 -4 26 -54 53
-178 96 -115 39 -154 47 -148 30z"/>
<path d="M700 2737 c0 -17 29 -44 174 -161 65 -53 124 -96 132 -96 22 0 17 25
-12 59 -38 46 -263 211 -286 211 -5 0 -8 -6 -8 -13z"/>
<path d="M1976 2412 c-3 -5 -10 -78 -16 -163 -11 -156 -38 -387 -65 -556 -20
-127 -20 -133 10 -133 26 0 36 23 66 155 24 110 40 145 62 145 11 0 102 -27
201 -59 100 -33 200 -63 224 -67 38 -6 42 -5 42 14 0 12 -6 24 -12 29 -7 4
-110 46 -228 94 l-215 86 0 124 c0 68 2 164 5 213 l4 88 -36 19 c-20 10 -39
15 -42 11z"/>
<path d="M1250 1113 c0 -9 -7 -24 -15 -33 -14 -15 -14 -18 0 -30 18 -15 61 -6
68 14 6 15 -28 66 -44 66 -5 0 -9 -8 -9 -17z"/>
<path d="M2870 1068 c0 -7 9 -33 20 -57 11 -24 18 -46 15 -49 -6 -7 -62 3
-274 47 -104 22 -157 29 -164 22 -15 -15 18 -27 231 -76 107 -25 198 -48 204
-51 6 -4 -5 -21 -26 -40 -72 -66 -30 -75 56 -11 32 23 58 49 58 58 0 9 -22 51
-50 93 -46 71 -70 93 -70 64z"/>
</g>
</svg>
